<svg xmlns="http://www.w3.org/2000/svg" version="1.1" xmlns:xlink="http://www.w3.org/1999/xlink" xmlns:svgjs="http://svgjs.dev/svgjs" width="1000" height="1000" viewBox="0 0 1000 1000"><g transform="matrix(1,0,0,1,0,0.0006813366149458489)"><svg viewBox="0 0 280 280" data-background-color="#ffffff" preserveAspectRatio="xMidYMid meet" height="1000" width="1000" xmlns="http://www.w3.org/2000/svg" xmlns:xlink="http://www.w3.org/1999/xlink"><g id="tight-bounds" transform="matrix(1,0,0,1,0,-0.00019077425218938515)"><svg viewBox="0 0 280 280" height="280" width="280"><g><svg viewBox="0 0 280 280" height="280" width="280"><g><svg viewBox="0 0 280 280" height="280" width="280"><g id="textblocktransform"><svg viewBox="0 0 280 280" height="280" width="280" id="textblock"><g><svg viewBox="0 0 280 280" height="280" width="280"><g transform="matrix(1,0,0,1,90.50252531694167,90.50252531694167)"><svg viewBox="0 0 98.99494936611666 98.99494936611666" height="98.99494936611666" width="98.99494936611666"><g><circle r="49" cx="49.49747468305833" cy="49.49747468305833" fill="#0080ff" data-fill-palette-color="accent"></circle></g></svg></g><path d="M10.045 190.361v0c-0.545-1.598-0.802-3.126-0.771-4.584 0.026-1.45 0.263-2.672 0.708-3.666 0.448-0.987 1.027-1.602 1.737-1.844v0c0.345-0.118 0.753-0.157 1.222-0.117 0.472 0.046 0.904 0.184 1.297 0.414 0.39 0.224 0.652 0.53 0.785 0.92v0c0.135 0.396 0.121 0.815-0.043 1.256-0.164 0.441-0.362 0.947-0.595 1.519-0.231 0.578-0.378 1.235-0.442 1.97-0.07 0.737 0.056 1.575 0.376 2.515v0c0.253 0.741 0.604 1.385 1.054 1.93 0.45 0.546 0.974 0.931 1.571 1.156 0.597 0.224 1.267 0.21 2.008-0.043v0c0.786-0.268 1.379-0.705 1.778-1.312 0.402-0.601 0.679-1.326 0.831-2.177 0.146-0.849 0.261-1.755 0.347-2.719 0.085-0.964 0.194-1.942 0.326-2.936 0.126-0.992 0.366-1.94 0.72-2.846 0.348-0.903 0.88-1.719 1.595-2.448 0.717-0.722 1.705-1.298 2.964-1.727v0c1.38-0.471 2.631-0.601 3.751-0.391 1.114 0.212 2.111 0.657 2.991 1.335 0.874 0.68 1.621 1.502 2.242 2.467 0.617 0.974 1.107 1.991 1.469 3.052v0c0.194 0.569 0.381 1.254 0.561 2.056 0.176 0.81 0.288 1.639 0.334 2.486 0.042 0.856-0.043 1.602-0.254 2.237-0.211 0.636-0.611 1.054-1.199 1.255v0c-0.3 0.102-0.668 0.153-1.104 0.151-0.444-0.006-0.868-0.097-1.27-0.273-0.403-0.177-0.68-0.489-0.832-0.936v0c-0.133-0.39-0.15-0.816-0.051-1.278 0.106-0.464 0.174-1.037 0.206-1.718 0.023-0.686-0.142-1.546-0.494-2.581v0c-0.294-0.863-0.665-1.575-1.113-2.135-0.454-0.558-0.942-0.931-1.462-1.118-0.512-0.182-1.077-0.168-1.697 0.044v0c-0.639 0.218-1.105 0.619-1.398 1.204-0.301 0.581-0.505 1.281-0.61 2.102-0.105 0.821-0.188 1.708-0.248 2.663-0.06 0.955-0.172 1.935-0.336 2.939-0.164 1.005-0.447 1.975-0.848 2.911-0.395 0.934-0.994 1.773-1.796 2.517-0.811 0.74-1.906 1.345-3.287 1.816v0c-1.751 0.597-3.354 0.719-4.808 0.365-1.457-0.36-2.71-1.095-3.759-2.207-1.058-1.116-1.877-2.524-2.456-4.224zM44.6 243.87v0c-0.466-0.421-0.807-0.91-1.022-1.468-0.211-0.563-0.142-1.037 0.207-1.423v0l17.008-18.853c0.366-0.406 0.829-0.521 1.388-0.344 0.563 0.172 1.078 0.468 1.544 0.889v0c0.481 0.434 0.834 0.92 1.058 1.458 0.223 0.529 0.152 0.996-0.215 1.402v0l-6.832 7.573 6.52 5.882 6.832-7.573c0.366-0.406 0.829-0.521 1.388-0.344 0.568 0.176 1.083 0.473 1.544 0.889v0c0.481 0.434 0.834 0.92 1.058 1.459 0.223 0.529 0.152 0.996-0.215 1.402v0l-17.008 18.853c-0.348 0.386-0.808 0.508-1.379 0.365-0.572-0.152-1.099-0.445-1.58-0.879v0c-0.461-0.416-0.802-0.905-1.022-1.468-0.211-0.563-0.142-1.037 0.206-1.423v0l7.51-8.325-6.52-5.882-7.51 8.325c-0.348 0.386-0.808 0.508-1.38 0.365-0.572-0.152-1.099-0.445-1.579-0.88zM107.099 278.602v0c-0.607-0.159-1.135-0.437-1.582-0.834-0.446-0.403-0.602-0.856-0.471-1.359v0l6.446-24.56c0.139-0.529 0.497-0.843 1.075-0.943 0.579-0.106 1.173-0.08 1.78 0.08v0c0.627 0.165 1.163 0.435 1.609 0.81 0.441 0.367 0.592 0.815 0.454 1.344v0l-6.446 24.56c-0.132 0.503-0.485 0.822-1.058 0.958-0.578 0.128-1.18 0.109-1.807-0.056zM165.075 279.906v0c-0.614 0.134-1.21 0.125-1.789-0.025-0.58-0.157-0.926-0.489-1.036-0.998v0l-5.398-24.769c-0.111-0.508 0.035-0.948 0.438-1.319 0.398-0.363 0.864-0.603 1.398-0.719v0l13.32-2.903c0.561-0.122 1.013 0.018 1.356 0.42 0.338 0.41 0.563 0.869 0.673 1.377v0c0.134 0.614 0.115 1.163-0.055 1.65-0.176 0.494-0.517 0.797-1.025 0.907v0l-10.529 2.295 1.663 7.63 5.838-1.273c0.508-0.111 0.937 0.003 1.287 0.342 0.355 0.33 0.591 0.763 0.708 1.297v0c0.095 0.435 0.066 0.891-0.086 1.366-0.147 0.467-0.501 0.762-1.061 0.884v0l-5.839 1.273 2.28 10.46c0.111 0.508-0.058 0.953-0.508 1.333-0.457 0.376-1.002 0.633-1.635 0.772zM230.717 247.448v0c-0.485 0.43-1.012 0.716-1.58 0.86-0.573 0.138-1.031 0.012-1.376-0.377v0l-14.85-16.748-4.297 3.81c-0.369 0.327-0.816 0.413-1.343 0.257-0.526-0.166-0.986-0.471-1.38-0.916v0c-0.363-0.409-0.61-0.881-0.74-1.414-0.121-0.533 0.023-0.982 0.433-1.345v0l12.36-10.959c0.429-0.381 0.897-0.475 1.401-0.282 0.504 0.202 0.938 0.508 1.301 0.918v0c0.394 0.445 0.647 0.933 0.759 1.466 0.102 0.532-0.042 0.971-0.431 1.316v0l-4.266 3.783 14.849 16.747c0.345 0.389 0.41 0.864 0.195 1.425-0.22 0.556-0.565 1.042-1.035 1.459zM268.984 191.221v0c-0.574 1.587-1.329 2.941-2.265 4.059-0.927 1.115-1.876 1.921-2.845 2.418-0.967 0.49-1.803 0.608-2.508 0.353v0c-0.343-0.124-0.685-0.348-1.027-0.673-0.34-0.331-0.591-0.709-0.753-1.133-0.165-0.418-0.177-0.821-0.037-1.209v0c0.142-0.394 0.415-0.711 0.818-0.954 0.403-0.242 0.875-0.513 1.415-0.813 0.542-0.307 1.067-0.727 1.576-1.261 0.515-0.532 0.942-1.264 1.279-2.198v0c0.266-0.737 0.395-1.458 0.384-2.165-0.01-0.707-0.178-1.335-0.503-1.884-0.326-0.549-0.857-0.956-1.594-1.222v0c-0.781-0.282-1.517-0.312-2.208-0.088-0.689 0.218-1.359 0.611-2.01 1.18-0.644 0.571-1.301 1.206-1.97 1.904-0.669 0.699-1.366 1.394-2.09 2.088-0.718 0.695-1.499 1.285-2.342 1.77-0.837 0.487-1.762 0.792-2.775 0.914-1.011 0.116-2.142-0.053-3.393-0.505v0c-1.372-0.496-2.429-1.176-3.172-2.041-0.737-0.862-1.236-1.833-1.5-2.912-0.257-1.077-0.326-2.186-0.207-3.327 0.127-1.146 0.381-2.246 0.762-3.3v0c0.204-0.565 0.487-1.217 0.847-1.956 0.369-0.743 0.8-1.459 1.294-2.149 0.502-0.694 1.035-1.223 1.597-1.587 0.562-0.364 1.136-0.44 1.72-0.229v0c0.298 0.108 0.617 0.299 0.956 0.572 0.343 0.282 0.617 0.618 0.821 1.007 0.204 0.39 0.225 0.807 0.064 1.251v0c-0.14 0.387-0.393 0.73-0.759 1.029-0.373 0.296-0.784 0.7-1.235 1.212-0.447 0.521-0.856 1.295-1.228 2.324v0c-0.31 0.857-0.465 1.645-0.467 2.362 0.005 0.72 0.153 1.315 0.442 1.786 0.285 0.462 0.736 0.805 1.352 1.027v0c0.635 0.23 1.25 0.208 1.844-0.065 0.598-0.265 1.195-0.684 1.79-1.259 0.595-0.575 1.215-1.216 1.859-1.924 0.644-0.708 1.344-1.403 2.1-2.084 0.756-0.682 1.583-1.262 2.482-1.741 0.892-0.482 1.884-0.762 2.975-0.841 1.095-0.071 2.329 0.142 3.7 0.638v0c1.74 0.629 3.067 1.536 3.981 2.721 0.912 1.191 1.43 2.549 1.554 4.072 0.128 1.533-0.113 3.143-0.724 4.833z" fill="#0080ff" data-fill-palette-color="primary"></path><path d="M28.737 105.175V105.175C28.196 106.766 27.476 108.126 26.579 109.254 25.675 110.38 24.747 111.199 23.796 111.709 22.845 112.22 22.014 112.355 21.305 112.113V112.113C20.96 111.996 20.617 111.776 20.278 111.453 19.929 111.135 19.669 110.768 19.497 110.353 19.324 109.938 19.304 109.535 19.437 109.145V109.145C19.572 108.749 19.838 108.429 20.234 108.186 20.633 107.937 21.099 107.657 21.633 107.346 22.16 107.034 22.672 106.609 23.168 106.072 23.667 105.528 24.074 104.793 24.39 103.866V103.866C24.64 103.131 24.757 102.411 24.74 101.706 24.723 101.002 24.545 100.381 24.207 99.845 23.869 99.309 23.332 98.916 22.597 98.666V98.666C21.817 98.401 21.085 98.383 20.4 98.614 19.722 98.847 19.067 99.251 18.435 99.828 17.798 100.403 17.155 101.044 16.508 101.751 15.854 102.455 15.175 103.162 14.47 103.871 13.768 104.573 13.004 105.173 12.179 105.669 11.353 106.166 10.44 106.483 9.437 106.619 8.435 106.756 7.311 106.612 6.064 106.188V106.188C4.69 105.72 3.629 105.067 2.88 104.227 2.128 103.379 1.612 102.422 1.332 101.357 1.053 100.292 0.964 99.192 1.065 98.057 1.168 96.915 1.399 95.817 1.758 94.762V94.762C1.949 94.2 2.217 93.549 2.561 92.81 2.914 92.067 3.331 91.346 3.811 90.646 4.296 89.956 4.813 89.422 5.362 89.045 5.909 88.675 6.476 88.59 7.064 88.79V88.79C7.358 88.89 7.681 89.075 8.031 89.344 8.375 89.611 8.653 89.937 8.864 90.323 9.075 90.708 9.106 91.122 8.956 91.563V91.563C8.823 91.953 8.574 92.296 8.209 92.593 7.849 92.898 7.448 93.311 7.007 93.831 6.574 94.347 6.183 95.12 5.833 96.149V96.149C5.541 97.005 5.402 97.792 5.414 98.51 5.433 99.23 5.591 99.815 5.887 100.265 6.181 100.722 6.635 101.054 7.248 101.263V101.263C7.888 101.481 8.497 101.449 9.078 101.169 9.665 100.891 10.249 100.462 10.831 99.883 11.414 99.304 12.016 98.656 12.637 97.94 13.267 97.221 13.953 96.516 14.694 95.827 15.435 95.137 16.243 94.546 17.117 94.052 17.998 93.56 18.978 93.266 20.059 93.17 21.147 93.077 22.375 93.263 23.742 93.728V93.728C25.481 94.32 26.817 95.195 27.749 96.354 28.679 97.519 29.221 98.859 29.376 100.374 29.525 101.887 29.312 103.487 28.737 105.175ZM57.367 59.401V59.401C56.906 59.818 56.387 60.104 55.81 60.261 55.239 60.414 54.778 60.297 54.43 59.911V59.911L37.53 41.192C37.168 40.791 37.099 40.322 37.323 39.783 37.556 39.245 37.903 38.768 38.364 38.352V38.352C38.845 37.918 39.357 37.619 39.901 37.455 40.454 37.292 40.912 37.411 41.274 37.812V37.812L48.061 45.33 54.541 39.479 47.754 31.962C47.392 31.561 47.323 31.091 47.547 30.553 47.78 30.015 48.127 29.538 48.588 29.122V29.122C49.064 28.692 49.576 28.393 50.125 28.225 50.678 28.062 51.136 28.181 51.498 28.582V28.582L68.398 47.301C68.746 47.687 68.818 48.154 68.613 48.703 68.408 49.252 68.068 49.741 67.591 50.171V50.171C67.13 50.587 66.611 50.874 66.034 51.031 65.463 51.183 65.002 51.067 64.654 50.681V50.681L57.195 42.419 50.715 48.269 58.174 56.531C58.522 56.917 58.594 57.385 58.389 57.933 58.189 58.478 57.849 58.967 57.367 59.401ZM111.924 28.956V28.956C111.323 29.113 110.73 29.129 110.146 29.004 109.568 28.876 109.213 28.561 109.081 28.058V28.058L102.677 3.666C102.539 3.143 102.694 2.694 103.14 2.319 103.594 1.948 104.122 1.684 104.722 1.526V1.526C105.349 1.362 105.942 1.332 106.5 1.437 107.066 1.546 107.418 1.862 107.555 2.385V2.385L113.959 26.777C114.091 27.28 113.94 27.728 113.506 28.121 113.078 28.513 112.551 28.791 111.924 28.956ZM161.079 27.845V27.845C160.472 27.712 159.937 27.457 159.474 27.079 159.017 26.703 158.844 26.261 158.955 25.753V25.753L164.324 1.154C164.435 0.646 164.747 0.31 165.259 0.145 165.772-0.019 166.292-0.044 166.82 0.071V0.071L180.05 2.959C180.604 3.08 180.954 3.394 181.098 3.903 181.236 4.41 181.25 4.917 181.139 5.425V5.425C181.008 6.026 180.763 6.515 180.404 6.893 180.047 7.264 179.614 7.394 179.106 7.283V7.283L168.647 5 166.993 12.58 172.791 13.845C173.292 13.955 173.636 14.234 173.821 14.682 174 15.129 174.031 15.619 173.915 16.154V16.154C173.821 16.582 173.607 16.978 173.272 17.34 172.944 17.704 172.503 17.825 171.949 17.705V17.705L166.15 16.439 163.882 26.829C163.772 27.337 163.433 27.667 162.868 27.82 162.309 27.975 161.713 27.983 161.079 27.845ZM218.107 55.961V55.961C217.622 55.531 217.275 55.042 217.065 54.495 216.861 53.952 216.931 53.487 217.276 53.098V53.098L232.033 36.471 227.768 32.686C227.4 32.359 227.264 31.927 227.361 31.39 227.453 30.849 227.697 30.356 228.091 29.912V29.912C228.45 29.508 228.886 29.214 229.402 29.03 229.912 28.842 230.371 28.929 230.78 29.292V29.292L243.052 40.183C243.476 40.56 243.62 41.008 243.484 41.528 243.352 42.052 243.107 42.517 242.749 42.921V42.921C242.354 43.365 241.901 43.672 241.39 43.841 240.874 44.006 240.424 43.918 240.04 43.577V43.577L235.806 39.819 221.049 56.446C220.703 56.835 220.242 56.953 219.664 56.801 219.085 56.649 218.566 56.369 218.107 55.961ZM250.418 104.674V104.674C249.847 103.092 249.56 101.581 249.556 100.139 249.559 98.695 249.773 97.477 250.197 96.484 250.621 95.491 251.186 94.867 251.891 94.613V94.613C252.234 94.489 252.638 94.447 253.105 94.487 253.576 94.518 254.008 94.642 254.402 94.859 254.796 95.076 255.063 95.378 255.203 95.765V95.765C255.345 96.159 255.337 96.574 255.179 97.012 255.023 97.456 254.834 97.965 254.611 98.541 254.395 99.115 254.26 99.766 254.207 100.496 254.157 101.232 254.298 102.06 254.631 102.981V102.981C254.894 103.712 255.253 104.347 255.706 104.887 256.159 105.426 256.685 105.8 257.284 106.008 257.883 106.215 258.547 106.187 259.278 105.923V105.923C260.053 105.644 260.636 105.2 261.026 104.592 261.411 103.987 261.67 103.262 261.803 102.417 261.942 101.57 262.044 100.668 262.108 99.712 262.178 98.754 262.268 97.777 262.376 96.784 262.486 95.796 262.708 94.851 263.043 93.948 263.377 93.045 263.893 92.227 264.591 91.494 265.288 90.762 266.256 90.172 267.495 89.725V89.725C268.86 89.232 270.097 89.08 271.206 89.269 272.324 89.461 273.324 89.886 274.207 90.544 275.091 91.201 275.847 92.005 276.477 92.955 277.11 93.911 277.615 94.913 277.993 95.961V95.961C278.195 96.52 278.392 97.195 278.584 97.987 278.773 98.788 278.897 99.611 278.959 100.458 279.012 101.3 278.941 102.04 278.747 102.677 278.551 103.307 278.161 103.728 277.577 103.939V103.939C277.285 104.044 276.918 104.101 276.476 104.11 276.04 104.117 275.62 104.035 275.214 103.866 274.808 103.696 274.526 103.392 274.368 102.954V102.954C274.228 102.567 274.208 102.143 274.308 101.684 274.399 101.22 274.455 100.647 274.474 99.966 274.49 99.293 274.313 98.445 273.944 97.422V97.422C273.637 96.571 273.254 95.869 272.797 95.317 272.332 94.766 271.844 94.408 271.332 94.241 270.817 94.068 270.255 94.091 269.645 94.311V94.311C269.01 94.54 268.553 94.946 268.275 95.527 267.99 96.111 267.801 96.811 267.708 97.627 267.615 98.443 267.549 99.324 267.51 100.271 267.468 101.227 267.372 102.206 267.224 103.207 267.075 104.208 266.814 105.174 266.44 106.106 266.059 107.04 265.476 107.882 264.691 108.632 263.9 109.384 262.825 110.005 261.466 110.496V110.496C259.739 111.119 258.149 111.269 256.697 110.946 255.243 110.617 253.983 109.909 252.916 108.822 251.855 107.733 251.023 106.35 250.418 104.674Z" fill="#0080ff" data-fill-palette-color="primary"></path><path d="M1.144 144.552c0-6.024 4.883-10.907 10.907-10.906 6.024 0 10.907 4.883 10.906 10.906 0 6.024-4.883 10.907-10.906 10.907-6.024 0-10.907-4.883-10.907-10.907zM256.378 144.552c0-6.024 4.883-10.907 10.906-10.906 6.024 0 10.907 4.883 10.907 10.906 0 6.024-4.883 10.907-10.907 10.907-6.024 0-10.907-4.883-10.906-10.907z" fill="#0080ff" data-fill-palette-color="primary"></path></svg></g></svg></g></svg></g><g></g></svg></g><defs></defs></svg><rect width="280" height="280" fill="none" stroke="none" visibility="hidden"></rect></g></svg></g></svg>